<svg xmlns="http://www.w3.org/2000/svg" xmlns:xlink="http://www.w3.org/1999/xlink" width="350" height="244" viewBox="0 0 350 244"><path fill="#E7E8E6" d="M321.387 220.653c.069 11.139-65.625 20.57-146.728 21.064-81.104.492-146.907-8.137-146.975-19.276-.067-11.14 65.626-20.571 146.73-21.067 81.104-.492 146.906 8.139 146.973 19.279"/><path fill="#B3B3B3" d="M53.932 125.165l45.985-6.259 34.68 9.677 39.116-5.168 42.369 11.66 6.938 104.982-47.703-10.979-45.672 5.272-44.188-10.763-51.948 4.888z"/><path fill="#FFF" d="M55.389 117.882l45.985-6.259 34.68 9.677 39.115-5.168 42.37 11.66 6.938 104.981-47.704-10.978-45.671 5.271-44.188-10.762-51.949 4.887z"/><path fill="none" stroke="#E1E1E1" stroke-width="2" stroke-miterlimit="10" d="M55.389 117.882l45.985-6.259 34.68 9.677 39.115-5.168 42.37 11.66 6.938 104.981-47.704-10.978-45.671 5.271-44.188-10.762-51.949 4.887z"/><g opacity=".5"><defs><path id="a" d="M43.782 119.164h172.726V223.78H43.782z"/></defs><clipPath id="b"><use xlink:href="#a" overflow="visible"/></clipPath><path clip-path="url(#b)" fill="#56BCEA" d="M61.042 125.095l40.737-5.931 34.616 9.113 37.196-4.724 36.749 10.667 6.168 89.559-41.794-9.196-43.894 4.908-41.722-10.378-45.316 3.872z"/></g><path fill="#9ACA51" d="M210.34 134.22l-36.75-10.667-37.196 4.725c-23.394-4.553-79.103 15.921-79.103 15.921l-13.51 68.787c13.155-22.995 52.301-34.455 52.301-34.455s25.138-6.457 21.708 19c34.244.33 56.924 17.053 56.924 17.053l41.794 9.196-6.168-89.56z"/><path fill="#9ACA51" d="M210.683 137.65l-.357-3.464-.682-.196-17.244 19.109-17.566 3.144-14.199 8.976-20.69-6.656-31.061 4.665-11.975-7.139-41.552.649-.578-.034-2.679 13.754 37.973.018 5.321 2.277-5.067 5.765-20.69 5.522-23.32 20.129-1.313 1.178-1.223 7.638 15.242-1.482 15.502-14.052 17.828-3.362 16.226-17.756 26.186-6.134 32.418 9.716 6.652-7.328 25.985-6.849 11.762-13.638z"/><defs><path id="c" d="M43.782 133.991h167.8v78.995h-167.8z"/></defs><clipPath id="d"><use xlink:href="#c" overflow="visible"/></clipPath><path clip-path="url(#d)" fill="#9ACA51" d="M210.683 137.65l-.357-3.464-.682-.196-17.244 19.109-17.566 3.144-14.199 8.976-20.69-6.656-31.061 4.665-11.975-7.139-41.552.649-.578-.034-2.679 13.754 37.973.018 5.321 2.277-5.067 5.765-20.69 5.522-23.32 20.129-1.313 1.178-1.223 7.638 15.242-1.482 15.502-14.052 17.828-3.362 16.226-17.756 26.186-6.134 32.418 9.716 6.652-7.328 25.985-6.849 11.762-13.638z"/><g opacity=".1"><defs><path id="e" d="M89.609 118.962h47.365v100.287H89.609z"/></defs><clipPath id="f"><use xlink:href="#e" overflow="visible"/></clipPath><path clip-path="url(#f)" fill="#6E7071" d="M102.215 118.963l-12.606 89.93 41.796 10.356 5.568-91.115z"/></g><g opacity=".1"><defs><path id="g" d="M173.59 123.553h42.918V223.78H173.59z"/></defs><clipPath id="h"><use xlink:href="#g" overflow="visible"/></clipPath><path clip-path="url(#h)" fill="#505250" d="M173.59 123.553l1.124 91.03 41.795 9.196-6.183-89.593z"/></g><path fill="#010101" d="M122.423 171.089c-.055.898-1.428 1.547-3.066 1.445-1.639-.099-2.923-.911-2.869-1.809.056-.899 1.429-1.547 3.068-1.447 1.638.102 2.922.911 2.867 1.811"/><path fill="#007AC2" d="M119.204 171.289l.44.026-.2-.439z"/><path fill="#9D5FA6" d="M133.195 144.725c.418-6.839-4.825-12.725-11.71-13.146-6.885-.421-12.806 4.782-13.224 11.621a12.294 12.294 0 0 0 2.106 7.677l9.078 19.998 11.227-19.397a12.289 12.289 0 0 0 2.523-6.753"/><path fill="#0A74AA" d="M119.416 170.924l.029-.048-.023-.049z"/><path fill="#0A74AA" d="M119.393 171.301l.251.015-.2-.44-.028.048z"/><path fill="#AB6CAD" d="M133.149 144.722c.411-6.728-4.775-12.535-11.421-13.119l-2.397 39.22.068.051 11.227-19.399a12.266 12.266 0 0 0 2.523-6.753"/><path fill="#AFAFAF" d="M322.274 140.628c.819 14.546-10.309 27.003-24.856 27.823-14.547.819-27.004-10.31-27.822-24.854-.82-14.547 10.309-27.006 24.855-27.825 14.545-.82 27.004 10.31 27.823 24.856"/><path fill="#8B8B8B" d="M292.865 153.844l7.42-.417 1.154 20.524-7.42.417zM167.28 7.584l19.783-1.115.865 15.335-19.784 1.116z"/><path fill="#7E7E81" d="M189.973 14.002c.237 4.233-.62 7.726-1.919 7.798-1.298.074-2.544-3.299-2.782-7.534-.238-4.234.62-7.726 1.918-7.799 1.296-.073 2.542 3.301 2.783 7.535"/><path fill="#8B8B8B" d="M262.698 17.608l-19.785 1.116-.865-15.334 19.786-1.115z"/><path fill="#7E7E81" d="M240.004 11.183c-.238-4.235.62-7.727 1.918-7.8 1.299-.073 2.543 3.301 2.782 7.536.238 4.233-.621 7.725-1.918 7.798-1.299.074-2.545-3.3-2.782-7.534"/><path fill="#AFAFAF" d="M262.025 5.725s18.674 1.18 16.5 15.445l4.881 38.181s2.703 12.75-2.459 18.003c0 0-7.267 3.138-8.853-2.976 0 0 3.751-10.135 1.944-21.445 0 0-1.254-27.966-3.248-32.568 0 0-2.712-4.065-8.237-5.242l-.528-9.398zm-94.549 5.326s-18.424 3.271-14.661 17.201l-.561 38.488s-1.255 12.972 4.465 17.612c0 0 7.574 2.303 8.462-3.951 0 0-4.867-9.65-4.342-21.093 0 0-1.894-27.928-.428-32.725 0 0 2.237-4.344 7.595-6.134l-.53-9.398z"/><path fill="#333" d="M272.475 73.613s3.78 5.448 8.639 3.584c0 0-16.389 48.21-59.176 50.62-42.786 2.41-64.978-43.625-64.978-43.625s5.272 1.09 7.685-4.505c0 0 17.161 36.001 56.295 34.788-.001 0 26.287 4.228 51.535-40.862"/><path fill="#8B8B8B" d="M310.178 141.31c.443 7.865-5.574 14.602-13.44 15.045-7.867.442-14.604-5.574-15.046-13.44-.442-7.866 5.576-14.603 13.44-15.046 7.867-.442 14.602 5.574 15.046 13.441"/><path fill="#F2F2F2" d="M297.16 131.027c-.479-.177 9.604 2.276 9.801 11.083 0 0-5.272-9.414-9.801-11.083"/><path fill="#333" d="M302.568 171.751l-9.617 1.039s.43 4.943-.283 11.082c.033 15.34-12.841 28.266-29.449 29.201-7.483.422-14.484-1.66-20.076-5.47-.557-.515-1.358-1.132-2.467-1.872a30.09 30.09 0 0 1-1.486-1.343c-6.121-7.034-9.748-30.334-11.604-46.759-.441-5.857-.84-12.654-1.153-20.541l-8.162.459.188 3.35-.188.009c-.649 7.283 1.364 30.142 2.612 43.022l.244 4.32s.106 1.863.67 4.74v.001l.004.02.147.719.004.021c2.198 10.377 10.079 31.717 37.677 30.539 0 0 37.483.369 40.869-27.609 0 0 3.702-13.607 2.07-24.928"/><path fill="#AFAFAF" d="M232.536 133.177a6.933 6.933 0 0 1-6.532 7.314l-7.173.404a6.935 6.935 0 0 1-7.315-6.536 6.933 6.933 0 0 1 6.534-7.313l7.173-.404a6.932 6.932 0 0 1 7.313 6.535"/><path fill="#F2F2F2" d="M224.082 127.909s5.615-.161 6.003 6.938c0 0-1.355-3.351-6.003-6.938"/><defs><path id="i" d="M118.96 131.243h14.389v40.824H118.96z"/></defs><clipPath id="j"><use xlink:href="#i" overflow="visible"/></clipPath><path clip-path="url(#j)" fill="#AB6CAD" d="M133.325 144.882c.428-6.994-4.964-13.032-11.873-13.64l-2.492 40.772.071.053 11.671-20.166a12.768 12.768 0 0 0 2.623-7.019"/><path fill="#FFF" d="M112.512 143.347a7.82 7.82 0 0 1 8.283-7.329 7.821 7.821 0 1 1-8.283 7.329"/></svg>