<svg xmlns="http://www.w3.org/2000/svg" width="350" height="244" viewBox="0 0 350 244"><path fill="#3C3B3C" d="M218.971 173.924c0-18.46-15.02-33.479-33.479-33.479h-25.5c-18.46 0-33.479 15.019-33.479 33.479h3.963c0-16.275 13.24-29.516 29.516-29.516h25.5c16.275 0 29.516 13.24 29.516 29.516h3.963z"/><path fill="#6C4D3A" d="M243.859 113.797c-1.016-2.745-.195-5.857 1.213-8.422s3.373-4.785 4.877-7.296c1.504-2.51 2.549-5.51 1.848-8.351-1.27-5.149-7.664-7.877-8.666-13.085-.715-3.714 1.576-7.259 2.586-10.905 1.957-7.067-1.031-14.645-5.354-20.571-4.32-5.926-9.949-10.794-14.369-16.647-4.877-6.457-8.264-14.08-14.037-19.749-7-6.871-17.322-9.959-26.982-8.642-2.961.404-7.244 1.036-9.436 3.365-2.194-2.329-6.477-2.961-9.438-3.365-9.659-1.317-19.981 1.771-26.98 8.642-5.774 5.669-9.16 13.292-14.037 19.749-4.42 5.853-10.048 10.721-14.37 16.647-4.321 5.926-7.311 13.503-5.354 20.571 1.011 3.646 3.303 7.191 2.586 10.905-1.002 5.208-7.396 7.936-8.666 13.085-.7 2.841.346 5.841 1.849 8.351 1.504 2.511 3.467 4.731 4.876 7.296s1.581 5.519 1.213 8.422c-.74 5.839 3.284 13.906 21.177 14.023 6.729.043 12.188 7.182 18.874 6.434 3.385-.379 22.266 2.742 28.271 1.293 6.006 1.449 24.885-1.672 28.27-1.293 6.688.748 12.225-5.396 18.873-6.434 5.264-.82 10.58 1.656 15.875 1.094 6.061-.643 11.375-5.705 12.311-11.728-2.625 1.296-5.994-.644-7.01-3.389"/><path fill="#EDBE89" d="M230.295 244.168h-110.4c-2.375-6.781-4.159-11.14-4.159-11.14s-27.939-32.343-27.001-37.571c2.051-11.429 4.674-20.209 8.103-23.721 15.656-16.035 45.606-9.467 55.98-19.84 10.372-10.373 5.355-45.913 5.355-45.913h33.842s-5.016 35.54 5.357 45.913 40.324 3.805 55.979 19.84c3.35 3.43 5.93 11.883 7.959 22.92.816 4.448-26.857 38.372-26.857 38.372s-1.783 4.359-4.158 11.14"/><path fill="#EDBE89" d="M237.596 244.168c-1.27-6.074-2.145-10.54-2.314-12.159-.75-7.148 14.908-35.001 24.977-42.597 3.389 13.276 6.184 33.979 8.525 54.756h-31.188zm-125.006 0H81.403c2.344-20.777 5.139-41.479 8.526-54.756 10.068 7.596 25.726 35.448 24.976 42.597-.17 1.619-1.044 6.085-2.315 12.159"/><path fill="#9E5FA6" d="M235.436 244.168H114.565v-8.664l-34.869-40.479s14.569-24.306 20.714-28.376c6.145-4.068 33.545-9.224 33.545-9.224l14.691 19.642L175 212.416l26.354-35.35 14.689-19.642s27.402 5.155 33.547 9.224c6.145 4.07 20.715 28.376 20.715 28.376l-34.869 40.479v8.665z"/><path fill="#3C3B3C" d="M216.988 226.782c5.254 0 9.529-4.274 9.529-9.529s-4.275-9.528-9.529-9.528-9.527 4.273-9.527 9.528 4.273 9.529 9.527 9.529"/><path fill="#FFF" d="M216.988 211.686c3.07 0 5.568 2.498 5.568 5.567s-2.498 5.567-5.568 5.567c-3.068 0-5.566-2.498-5.566-5.567s2.498-5.567 5.566-5.567m-77.698 28.011h2.86c5.072 0 9.199-4.127 9.199-9.199l-.015-22.088-2.972.002.016 22.087a6.235 6.235 0 0 1-6.229 6.227h-2.86v2.971z"/><path fill="#3C3B3C" d="M132.565 238.212c0 1.896.214 3.433 2.823 3.433 2.61 0 4.725-1.537 4.725-3.433s-2.114-3.432-4.725-3.432c-2.609 0-2.823 1.536-2.823 3.432"/><path fill="#FFF" d="M117.667 239.697h-2.859c-5.073 0-9.2-4.127-9.2-9.199l.014-22.088 2.973.002-.016 22.087a6.235 6.235 0 0 0 6.229 6.227h2.859v2.971z"/><path fill="#3C3B3C" d="M124.391 238.212c0 1.896-.214 3.433-2.823 3.433-2.61 0-4.725-1.537-4.725-3.433s2.114-3.432 4.725-3.432c2.609 0 2.823 1.536 2.823 3.432m-19.246-28.507h3.962c0-18.57 8.697-33.677 19.388-33.677s19.389 15.106 19.389 33.677h3.962c0-20.754-10.476-37.639-23.351-37.639-12.876 0-23.35 16.885-23.35 37.639m107.613-55.172a33.303 33.303 0 0 1 6.213 19.392v35.78h-3.963v-35.78c0-7.418-2.756-14.2-7.291-19.392h5.041z"/><path fill="#3C3B3C" d="M137.769 154.533c-.221.254-.445.504-.658.764a29.383 29.383 0 0 0-6.636 18.628h-3.962a33.303 33.303 0 0 1 6.213-19.392h5.043z"/><path fill="#F6CCAD" d="M121.342 81.327c1.595 7.781 8.998 14.952 15.151 13.717 6.152-1.235.688-26.524-5.777-28.179-8.724-2.233-10.968 6.68-9.374 14.462"/><path fill="#D4AB85" d="M124.253 79.881c1.134 5.528 6.393 10.621 10.764 9.744 4.37-.877.489-18.842-4.104-20.017-6.198-1.587-7.792 4.745-6.66 10.273"/><path fill="#EBBC87" d="M230.076 81.327c-1.594 7.781-8.998 14.952-15.15 13.717-6.152-1.235-.688-26.524 5.777-28.179 8.725-2.233 10.969 6.68 9.373 14.462"/><path fill="#E2A369" d="M227.166 79.881c-1.133 5.528-6.393 10.621-10.762 9.744-4.371-.877-.49-18.842 4.104-20.017 6.197-1.587 7.791 4.745 6.658 10.273"/><path fill="#F6CCAD" d="M128.323 68.271c0 33.485 25.748 66.067 47.388 66.067 21.637 0 47.385-32.582 47.385-66.067 0-33.485-21.215-51.998-47.385-51.998-26.172 0-47.388 18.513-47.388 51.998"/><path fill="#F6CCAD" d="M174.376 22.702c26.17 0 47.385 18.513 47.385 51.998 0 3.705-.33 7.395-.92 11.034 1.438-5.678 2.254-11.554 2.254-17.462 0-33.485-21.215-51.998-47.386-51.998-23.177 0-42.455 14.53-46.565 41.111 6.023-22.491 23.995-34.683 45.232-34.683"/><path fill="#F6CCAD" d="M175.709 134.338c17.822 0 38.414-22.102 45.132-48.604.59-3.64.922-7.33.922-11.034 0-33.486-21.217-51.998-47.387-51.998-21.238 0-39.211 12.192-45.232 34.682a71.224 71.224 0 0 0-.821 10.887c0 33.485 25.748 66.067 47.386 66.067"/><path fill="#FFF" d="M172.76 65.838c-10.838-.784-13.354-8.474-44.584-2.174v5.773c5.005 2.309 0 22.13 24.056 22.13 22.035 0 15.973-19.436 23.478-19.34 7.505-.096 1.443 19.34 23.478 19.34 24.055 0 19.051-19.821 24.055-22.13v-5.773c-31.818-6.418-33.83 1.684-45.205 2.211-.733.035-4.362.031-5.278-.037m-21.587 23.806c-13.759-.577-19.918-11.01-15.684-19.725s31.843-6.742 33.388.673c1.925 9.237-3.944 19.628-17.704 19.052m49.073 0c-13.76.577-19.629-9.815-17.705-19.052 1.545-7.415 29.154-9.388 33.389-.673 4.232 8.714-1.926 19.147-15.684 19.725"/><path fill="#6C4D3A" d="M179.957 10.008c14.998 1.214 29.039 8.68 40.049 18.936 5.908 5.505 11.197 12.1 13.172 19.93 1.355 5.361 1.078 10.999.389 16.485a112.255 112.255 0 0 1-9.383 32.831c-1.381-7.082-2.838-14.203-5.59-20.874-2.75-6.671-6.902-12.933-12.785-17.114-6.793-4.83-15.719-6.818-21.018-13.253-2.773-3.37-4.439-7.847-8.188-10.082-3.819-2.276-8.612-1.539-13.058-1.506-4.513.032-26.321-3.612-22.504-10.594 3.965-7.253 15.906-11.845 23.401-13.595a50.467 50.467 0 0 1 15.515-1.164"/><path fill="#6C4D3A" d="M135.624 50.122c-5.587 4.542-7.309 16.347-7.309 16.347l-.791-.056s-2.798-15.676-.987-23.166c1.067-4.413 7.062-19.408 13.332-18.179 8.009 1.568 4.507 17.938-4.245 25.054"/><path fill="#795946" d="M157.546 42.001c6.479 1.245 14.093-1.249 19.165 2.972 3.932 3.272 4.816 9.237 8.818 12.424 3.566 2.841 8.555 2.706 13.025 3.608 7.23 1.458 13.789 6.115 17.4 12.547 3.611 6.432 4.154 14.539 1.279 21.331-1.645 3.888-4.291 7.249-6.582 10.793-2.293 3.545-4.295 7.482-4.389 11.703-.09 4.221 2.217 8.734 6.23 10.037 4.016 1.305 9.146-2.021 8.643-6.212-2.334 1.904-6.045-.844-6.217-3.851s1.758-5.671 3.463-8.151c5.93-8.626 10.27-18.809 9.746-29.263s-6.789-21.027-16.695-24.404c-5.689-1.94-12.396-1.605-17-5.471-6.053-5.086-7.65-13.602-14.547-17.473-14.453-8.114-17.753 4.994-40.018-7.524 3.338 6.72 4.443 14.39 17.679 16.934"/><path fill="#D4AB85" d="M191.711 138.524c-.486-2.881-.764-5.935-.902-8.97-5.043 3.059-10.232 4.783-15.208 4.783-5.367 0-10.985-2.008-16.402-5.533-.115 3.025-.372 6.078-.823 8.979 5.669 3.866 11.586 6.097 17.226 6.097 5.271.001 10.783-1.945 16.109-5.356"/></svg>