<svg id="Layer_1" data-name="Layer 1" xmlns="http://www.w3.org/2000/svg" viewBox="0 0 346.25 227.4"><defs><style>.cls-1{opacity:0.2;}.cls-1,.cls-15,.cls-27,.cls-30{isolation:isolate;}.cls-2{fill:#404041;}.cls-15,.cls-3{fill:#fff;}.cls-4{fill:#cccbcb;}.cls-5{fill:#6d6e70;}.cls-6{fill:#808184;}.cls-7{fill:#d0d2d3;}.cls-8{fill:#ec1c24;}.cls-9{fill:#a6a8ab;}.cls-10{fill:#ffc21c;}.cls-11{fill:#37b34a;}.cls-12{fill:#f1f1f2;}.cls-13{fill:#bbbdbf;}.cls-14{fill:#e5e5e4;}.cls-15{opacity:0.27;}.cls-16{fill:#cfd7da;}.cls-17{fill:#86c353;}.cls-18{fill:#007ac3;}.cls-19{fill:#dcdddd;}.cls-20{fill:#3d3d3e;}.cls-21{fill:#686a6c;}.cls-22,.cls-24,.cls-25{fill:none;stroke-miterlimit:10;}.cls-22,.cls-24{stroke:#686a6c;}.cls-22{stroke-linecap:round;stroke-width:0.8px;}.cls-23{fill:#f4f5f5;}.cls-24{stroke-width:0.5px;}.cls-25{stroke:#e57e5e;stroke-width:0.3px;}.cls-26{fill:#37af47;}.cls-27{font-size:1.93px;}.cls-27,.cls-30{font-family:ArialMT, Arial;}.cls-28{letter-spacing:-0.06em;}.cls-29{letter-spacing:0em;}.cls-30{font-size:7.71px;}.cls-31{font-size:14.26px;font-family:OpenSans-Light, Open Sans;font-weight:300;}.cls-32{font-size:3.58px;font-family:OpenSans, Open Sans;}</style></defs><g id="Group_2374" data-name="Group 2374"><ellipse id="Ellipse_126" data-name="Ellipse 126" class="cls-1" cx="173" cy="199" rx="173" ry="9.6"/><g id="Group_2365" data-name="Group 2365"><path id="Path_2189" data-name="Path 2189" class="cls-2" d="M48.22,8.3h250.9s7.7,1.9,7.7,8.8V189h-267V18.8S41.52,8.3,48.22,8.3Z" transform="translate(-2.45 -8.3)"/><rect id="Rectangle_1993" data-name="Rectangle 1993" class="cls-3" x="52.47" y="14.8" width="236.5" height="152.3"/><rect id="Rectangle_1994" data-name="Rectangle 1994" class="cls-4" x="7.87" y="179.1" width="325.7" height="11.4"/><g id="Group_2364" data-name="Group 2364"><path id="Path_2190" data-name="Path 2190" class="cls-5" d="M10.32,198.74s-1.4,9.8,18.2,9.8h291.9" transform="translate(-2.45 -8.3)"/><path id="Path_2191" data-name="Path 2191" class="cls-5" d="M336,198.74s1.4,9.8-18.2,9.8H25.92" transform="translate(-2.45 -8.3)"/><path id="Path_2192" data-name="Path 2192" class="cls-5" d="M11.42,198.74h323.8l-12.8,7.5H30.32Z" transform="translate(-2.45 -8.3)"/></g><path id="Path_2193" data-name="Path 2193" class="cls-6" d="M172.62,16.2a2.4,2.4,0,1,1,2.4,2.4,2.43,2.43,0,0,1-2.4-2.4Z" transform="translate(-2.45 -8.3)"/><path id="Path_2194" data-name="Path 2194" class="cls-6" d="M169.22,16.2a1.1,1.1,0,1,1,1.1,1.1h0A1.27,1.27,0,0,1,169.22,16.2Z" transform="translate(-2.45 -8.3)"/></g><g id="Group_2370" data-name="Group 2370"><rect id="Rectangle_1995" data-name="Rectangle 1995" class="cls-7" x="53.32" y="19.08" width="233.6" height="9.8"/><g id="Group_2366" data-name="Group 2366"><path id="Path_2195" data-name="Path 2195" class="cls-8" d="M62.08,32.11a1.8,1.8,0,1,1-1.8-1.8A1.86,1.86,0,0,1,62.08,32.11Z" transform="translate(-2.45 -8.3)"/><path id="Path_2196" data-name="Path 2196" class="cls-9" d="M60.18,34a1.9,1.9,0,0,1-1.9-1.9h0a1.9,1.9,0,1,1,1.9,1.9Zm0-3.7a1.8,1.8,0,1,0,1.8,1.8h0a1.79,1.79,0,0,0-1.8-1.8Z" transform="translate(-2.45 -8.3)"/></g><g id="Group_2367" data-name="Group 2367"><path id="Path_2197" data-name="Path 2197" class="cls-10" d="M68.41,32.11a1.8,1.8,0,1,1-1.8-1.8A1.79,1.79,0,0,1,68.41,32.11Z" transform="translate(-2.45 -8.3)"/><path id="Path_2198" data-name="Path 2198" class="cls-9" d="M66.61,34a1.9,1.9,0,0,1-1.9-1.9h0a1.9,1.9,0,0,1,3.8,0A2,2,0,0,1,66.61,34Zm0-3.7a1.8,1.8,0,1,0,1.8,1.8h0a1.79,1.79,0,0,0-1.8-1.8Z" transform="translate(-2.45 -8.3)"/></g><g id="Group_2368" data-name="Group 2368"><path id="Path_2199" data-name="Path 2199" class="cls-11" d="M75.59,32.11a1.8,1.8,0,1,1-1.8-1.8,1.86,1.86,0,0,1,1.8,1.8Z" transform="translate(-2.45 -8.3)"/><path id="Path_2200" data-name="Path 2200" class="cls-9" d="M73.69,34a1.9,1.9,0,0,1-1.9-1.9h0a1.9,1.9,0,0,1,3.8,0h0A1.84,1.84,0,0,1,73.69,34Zm0-3.7a1.8,1.8,0,1,0,1.8,1.8h0a1.79,1.79,0,0,0-1.8-1.8Z" transform="translate(-2.45 -8.3)"/></g><rect id="Rectangle_1996" data-name="Rectangle 1996" class="cls-12" x="79.62" y="21.28" width="5.3" height="5.3"/><rect id="Rectangle_1997" data-name="Rectangle 1997" class="cls-12" x="86.92" y="21.28" width="5.3" height="5.3"/><path id="Path_2201" data-name="Path 2201" class="cls-6" d="M85.56,34.48l-2.1-2.1,2.1-2.1.3.3L84,32.38l1.9,1.8Z" transform="translate(-2.45 -8.3)"/><path id="Path_2202" data-name="Path 2202" class="cls-13" d="M91.16,34.38l-.3-.3,1.8-1.8-1.8-1.8.3-.3,2.1,2.1Z" transform="translate(-2.45 -8.3)"/><path id="Path_2203" data-name="Path 2203" class="cls-12" d="M230.56,32.28a2.58,2.58,0,0,1-2.2,2.9H117.16a2.58,2.58,0,0,1-2.2-2.9h0a2.58,2.58,0,0,1,2.2-2.9h111.2a2.58,2.58,0,0,1,2.2,2.9Z" transform="translate(-2.45 -8.3)"/><rect id="Rectangle_1998" data-name="Rectangle 1998" class="cls-14" x="53.32" y="28.88" width="233.6" height="132.8"/></g><rect id="Rectangle_1999" data-name="Rectangle 1999" class="cls-3" x="56.4" y="31.9" width="227.6" height="123.7"/><path id="Path_2233" data-name="Path 2233" class="cls-15" d="M60,163.9h226.6V46.8C231.05,110.5,110.55,149.6,60,163.9Z" transform="translate(-2.45 -8.3)"/><g id="Group_2345" data-name="Group 2345"><g id="Group_2311" data-name="Group 2311"><g id="Group_2308" data-name="Group 2308"><path id="Path_2248" data-name="Path 2248" class="cls-16" d="M186.43,136.41a24,24,0,1,1,24-24A24,24,0,0,1,186.43,136.41Zm0-41.8a17.8,17.8,0,1,0,17.8,17.8h0a17.71,17.71,0,0,0-17.8-17.8Z" transform="translate(-2.45 -8.3)"/><g id="Group_2307" data-name="Group 2307"><path id="Path_2249" data-name="Path 2249" class="cls-17" d="M186.71,136.21a24,24,0,0,1-24-24,3.1,3.1,0,0,1,6.2,0,17.8,17.8,0,1,0,17.8-17.8,3.1,3.1,0,1,1,0-6.2h0a24,24,0,0,1,0,48Z" transform="translate(-2.45 -8.3)"/></g></g><g id="Group_2310" data-name="Group 2310"><path id="Path_2250" data-name="Path 2250" class="cls-16" d="M239.91,136.41a24,24,0,1,1,24-24A24,24,0,0,1,239.91,136.41Zm0-41.8a17.8,17.8,0,1,0,17.8,17.8h0a17.71,17.71,0,0,0-17.8-17.8Z" transform="translate(-2.45 -8.3)"/><g id="Group_2309" data-name="Group 2309"><path id="Path_2251" data-name="Path 2251" class="cls-18" d="M240.07,136.21a3.1,3.1,0,0,1,0-6.2,17.8,17.8,0,1,0,0-35.6h0a3.1,3.1,0,1,1,0-6.2h0a24,24,0,0,1,0,48Z" transform="translate(-2.45 -8.3)"/></g></g></g><g id="Group_2373" data-name="Group 2373"><path id="Path_2252" data-name="Path 2252" class="cls-16" d="M136.38,95H75.58a2.1,2.1,0,0,1-2-2.1,2,2,0,0,1,2-2h60.71a2.11,2.11,0,0,1,2.09,2.1,1.89,1.89,0,0,1-2,2Z" transform="translate(-2.45 -8.3)"/><path id="Path_2253" data-name="Path 2253" class="cls-16" d="M116.48,108.17H75.68a2.05,2.05,0,1,1-.1-4.1h40.9a2.11,2.11,0,0,1,2.1,2.1,2.25,2.25,0,0,1-2.1,2Z" transform="translate(-2.45 -8.3)"/><path id="Path_2254" data-name="Path 2254" class="cls-16" d="M130.08,121.77H75.68a2.05,2.05,0,1,1-.1-4.1h54.5a2.11,2.11,0,0,1,2.1,2.1,2.17,2.17,0,0,1-2.1,2Z" transform="translate(-2.45 -8.3)"/><path id="Path_2255" data-name="Path 2255" class="cls-16" d="M136.38,135.37H75.58a2.05,2.05,0,0,1-.09-4.1h60.8a2.11,2.11,0,0,1,2.09,2.1,1.89,1.89,0,0,1-2,2Z" transform="translate(-2.45 -8.3)"/></g></g></g><ellipse class="cls-19" cx="300.35" cy="215.3" rx="45.9" ry="12.1"/><path class="cls-20" d="M330.2,228.8l-59.8-3.2a5.88,5.88,0,0,1-5.5-6.1L271.2,102a5.88,5.88,0,0,1,6.1-5.5l59.8,3.2a5.88,5.88,0,0,1,5.5,6.1l-6.3,117.5A5.74,5.74,0,0,1,330.2,228.8Z" transform="translate(-2.45 -8.3)"/><circle class="cls-21" cx="304.55" cy="93.5" r="1"/><path class="cls-22" d="M301.2,105.1l11.2.6" transform="translate(-2.45 -8.3)"/><path class="cls-23" d="M277.7,108.3l57.7,3.1L330,212.6l-57.7-3.1Z" transform="translate(-2.45 -8.3)"/><circle class="cls-24" cx="298.25" cy="210.8" r="5.7"/><circle cx="277.45" cy="102.3" r="1"/><circle cx="280.15" cy="102.4" r="1"/><circle cx="282.75" cy="102.6" r="1"/><circle cx="285.45" cy="102.7" r="1"/><path d="M290.6,110.1v.2a.8.8,0,1,1-.8.8.86.86,0,0,1,.8-.8v-.2m0,0a1,1,0,0,0-1,1,1.09,1.09,0,0,0,.9,1.1h.1a1,1,0,0,0,1-1A1.09,1.09,0,0,0,290.6,110.1Z" transform="translate(-2.45 -8.3)"/><path d="M327.4,112.1l6,.3-.1,1.8-6-.3.1-1.8m-.2-.2-.1,2.2,6.4.3.1-2.2Z" transform="translate(-2.45 -8.3)"/><path d="M327.2,111.9l4.7.3-.1,2.2-4.7-.3Z" transform="translate(-2.45 -8.3)"/><circle class="cls-25" cx="286.65" cy="121" r="6.2"/><circle class="cls-25" cx="303.55" cy="121.9" r="6.2"/><circle class="cls-25" cx="320.35" cy="122.8" r="6.2"/><circle class="cls-25" cx="285.85" cy="136.8" r="6.2"/><circle class="cls-25" cx="302.65" cy="137.7" r="6.2"/><circle class="cls-25" cx="319.45" cy="138.6" r="6.2"/><circle class="cls-25" cx="285.05" cy="152.6" r="6.2"/><circle class="cls-25" cx="301.85" cy="153.4" r="6.2"/><circle class="cls-25" cx="318.65" cy="154.3" r="6.2"/><circle class="cls-25" cx="284.15" cy="168.3" r="6.2"/><circle class="cls-25" cx="300.95" cy="169.2" r="6.2"/><circle class="cls-25" cx="317.75" cy="170.1" r="6.2"/><circle class="cls-26" cx="299.55" cy="189.7" r="7.8"/><path class="cls-23" d="M301.2,193.1s-2.3.5-2.4,2.2a13.74,13.74,0,0,0,1.7,5.4c.6.9,1.2,2,2.3,2.1a3.25,3.25,0,0,0,2.5-1.1c.7-.6.6-.5.1-1.6l-.6-.9s-.5-.9-1.3.1-1.7.5-1.7.4-2-1.7-.7-3.6l1.2-.3s.5,0,.2-.9a4.85,4.85,0,0,0-.6-1.5s.1-.6-.7-.3Z" transform="translate(-2.45 -8.3)"/><text class="cls-27" transform="translate(300.55 104.66) rotate(3.05)">9:15<tspan class="cls-28" x="3.75" y="0"> </tspan><tspan class="cls-29" x="4.18" y="0">AM</tspan></text><text class="cls-27" transform="translate(320.05 105.7) rotate(3.05)">75%</text><text class="cls-30" transform="translate(284.7 123.87) rotate(3.05)">1</text><text class="cls-30" transform="translate(301.95 124.79) rotate(3.05)">2</text><text class="cls-30" transform="translate(318.56 125.68) rotate(3.05)">3</text><text class="cls-30" transform="translate(283.86 139.52) rotate(3.05)">4</text><text class="cls-30" transform="translate(301.11 140.44) rotate(3.05)">5</text><text class="cls-30" transform="translate(317.73 141.33) rotate(3.05)">6</text><text class="cls-30" transform="translate(283.02 155.25) rotate(3.05)">7</text><text class="cls-30" transform="translate(300.28 156.17) rotate(3.05)">8</text><text class="cls-30" transform="translate(316.89 157.05) rotate(3.05)">9</text><text class="cls-30" transform="translate(282.76 172.07) rotate(3.05)">*</text><text class="cls-30" transform="translate(299.45 171.66) rotate(3.05)">0</text><text class="cls-30" transform="translate(316.06 172.54) rotate(3.05)">#</text><text class="cls-31" transform="translate(71.04 64.21)">My Plan</text><text class="cls-31" transform="translate(158.73 65.21)">Spending</text><text class="cls-32" transform="translate(146.73 25.13)">https://www.ExcellusBCBS.com/</text></svg>