<svg xmlns="http://www.w3.org/2000/svg" viewBox="0 0 260 48.9"><g fill-rule="evenodd" clip-rule="evenodd"><path fill="#107ABF" d="M203.9 45.2c0-1.7 1.4-2.9 3-2.9s3 1.2 3 2.9-1.4 2.9-3 2.9c-1.6.1-3-1.2-3-2.9zm3 2.5c1.3 0 2.4-1 2.4-2.4s-1-2.4-2.4-2.4c-1.3 0-2.4 1-2.4 2.4 0 1.3 1.1 2.4 2.4 2.4zm-.6-.8h-.5v-3.4h1.3c.8 0 1.2.3 1.2 1 0 .6-.4.9-.9.9l1 1.5h-.6l-.9-1.5h-.6v1.5zm.6-1.9c.4 0 .8 0 .8-.5 0-.4-.4-.5-.7-.5h-.7v1h.6zm44.3.2c0-1.7 1.4-2.9 3-2.9s3 1.2 3 2.9-1.4 2.9-3 2.9c-1.6.1-3-1.2-3-2.9zm3 2.5c1.3 0 2.4-1 2.4-2.4s-1-2.4-2.4-2.4c-1.3 0-2.4 1-2.4 2.4 0 1.3 1.1 2.4 2.4 2.4zm-.6-.8h-.5v-3.4h1.3c.8 0 1.2.3 1.2 1 0 .6-.4.9-.9.9l1 1.5h-.6l-.9-1.5h-.6v1.5zm.6-1.9c.4 0 .8 0 .8-.5 0-.4-.4-.5-.7-.5h-.7v1h.6z"/><path fill="#107ABF" d="M200.8 48.2V34.9h13.3V13.8h-13.3V.5h-21.2v13.3h-13.3v21.1h13.3v13.3h21.2z"/><path fill="#FFF" d="M177.9 19.8l8.8.8c1.7.2 1.8 1.8 1.4 2.8l-6 11.3c-3.1-2.4-5-6.1-5-10.3 0-1.6.3-3.2.8-4.6zm12.4-6.8c-1.6 0-2 1.8-1.4 2.7.6.8.7 1 .7 1.8 0 .6-.6 1.4-2 1.4h-9.4c2.1-4.5 6.6-7.5 11.9-7.5l.2 1.6z"/><path fill="#107ABF" d="M179.2 21.7l6.7.6c.5 0 .5.2.4.5l-4.7 8.9c-1.7-2-2.7-4.5-2.7-7.3 0-.9.1-1.8.3-2.7zm7.9-8.1c-.7 1.1-.1 2.5.5 3.2.1.1.1.2 0 .3h-5.9c1.4-1.7 3.2-2.9 5.4-3.5z"/><path fill="#FFF" d="M202.6 19.8l-8.8.8c-1.7.2-1.8 1.8-1.4 2.8l6 11.3c3.1-2.4 5-6.1 5-10.3 0-1.6-.3-3.2-.8-4.6zM190.2 13c1.6 0 2 1.8 1.4 2.7-.6.8-.7 1-.7 1.8 0 .6.6 1.4 1.9 1.4h9.4c-2.1-4.5-6.6-7.5-11.9-7.5l-.1 1.6z"/><path fill="#107ABF" d="M201.2 21.7l-6.7.6c-.5 0-.5.2-.4.5l4.7 8.9c1.7-2 2.7-4.5 2.7-7.3.1-.9 0-1.8-.3-2.7zm-7.8-8.1c.7 1.1.1 2.5-.5 3.2-.1.1-.1.2 0 .3h5.9c-1.4-1.7-3.3-2.9-5.4-3.5z"/><path fill="#FFF" d="M190.2 37.5c2.7 0 5.2-.8 7.2-2.2l-6.4-9.5c-.5-.6-1.2-.7-1.6 0l-6.4 9.5a13 13 0 0 0 7.2 2.2z"/><path fill="#107ABF" d="M240.4 48.7c9.2-5.1 14.8-13.1 17.6-21.9 3-9.2 2.5-20-1-26.8-5.3 2.6-10.5 4-16.7 4-6.1 0-11.4-1.3-16.7-4-3.5 6.8-3.9 17.6-1 26.8 3 8.8 8.6 16.8 17.8 21.9z"/><path fill="#FFF" d="M240.4 44.6c7.6-4.7 11.6-11.3 14.2-18.9 2.3-6.7 2.9-14.5.3-20.7-3.8 1.3-6 1.7-8.1 2-1.9.3-3.6.5-6.4.5-2.8 0-4.5-.2-6.4-.5-2.1-.3-4.3-.7-8.1-2-2.5 6.1-2 14 .3 20.7 2.6 7.6 6.6 14.2 14.2 18.9z"/><path fill="#107ABF" d="M240.4 42.8c5.1-3.2 10.9-10.5 13.2-20 1.2-5.1 1.6-10.8 0-15.3-2.3.6-4.4 1.1-6.6 1.4-2.2.3-4.4.5-6.6.5-2.2 0-4.3-.2-6.6-.5-2.2-.3-4.4-.8-6.6-1.4-1.6 4.5-1.3 10.2 0 15.3 2.3 9.5 8.1 16.8 13.2 20z"/><path fill="#FFF" d="M235.2 12.8c-1.7.9-2.3 3-1.5 4.7.7 1.5 2 2.4 3.5 2.9.8.2 1.6.3 2.4.3 1 0 1.9.1 2.8.3.2.1.4.2.5.4.3.5 0 1-.5 1.1 0 .8-.1 2.5-.1 2.5s4-.4 3.3-4c-.2-.9-.8-1.7-1.6-2.1-2-1-4.2-.6-6.3-1.2-.7-.2-1.7-.6-1.9-1.3-.1-.3 0-.9.3-1 .5-.2 1.1.3 1.9.4.5.1 1 .1 1.3 0 .2-.1.4-.1.4-.2s-.2-.2-.3-.2c-.2-.1-.5-.2-.7-.3-.4-.2-.8-.4-1.3-.6.4-.1 1.1-.1 1.5-.1.3 0 1.3 0 1.6-.1.1 0 .2-.1.1-.2-.1-.2-.3-.3-.4-.4-.3-.4-.5-.8-1-1-1.2-.5-2.7-.6-4 .1z"/><path fill="#FFF" d="M241.9 25.6v-4.2s-.5-.1-1.3-.2c-1-.1-1.4 0-1.4 0v.4s-.5.2-.5.3c0 .1-.2.2-.1.4.4 1 .9 2 1.1 3.2.6 0 1.3-.1 2.2.1z"/><path fill="#FFF" d="M236.8 24.9c-.2 1.6.9 2.5 2.1 2.8.9.2 1.9.3 2.8.4.1 0 .4 0 .6.1.2.1.3.2.3.3 0 .2 0 .3-.1.4-.1.1-.4.2-.4.2l-.1 2s.8 0 1.5-.4c.6-.4 1-.8 1.1-1.4.2-.7 0-1.3-.4-2-.3-.4-.9-.8-1.4-1-1.2-.4-2.4-.3-3.7-.5-.2 0-.4-.2-.4-.3 0-.3.3-.4.3-.4s-.1-.5-.3-.9c-.1-.3-.3-.8-.5-1.1-.7.2-1.3 1-1.4 1.8z"/><path fill="#FFF" d="M241.8 28.6v3.5l-.9-.4-.9-.4v-3c.7.2 1.1.2 1.8.3z"/><path fill="#FFF" d="M237.8 30.6c-.5 1.1.1 2.3 1.1 2.7.5.2 1.2.5 1.7.7.5.2 1.5.8 1.6 1.1 0 .2-.2.3-.2.3v1.4s.6-.1 1-.5c.4-.3.7-.8.7-1.5 0-.8-.4-1.4-1.4-2-.8-.5-1.9-.9-2.7-1.2-.1-.1-.2-.3-.2-.4 0-.1.1-.2.1-.2v-1.6s-.6.1-.9.3c-.2.2-.6.4-.8.9z"/><path fill="#FFF" d="M241.6 35.3c0-.1 0-.1-.1-.2-.2-.2-.6-.4-.7-.5-.2-.1-.8-.3-.8-.3s0 3.6.1 5.5c0 .4.3.5.7.6.5 0 .6-.3.7-.5 0-.7.1-3.3.1-4.6zm.4-23.4c.2.1.2.1.2.4.1.6 0 1.5.1 1.9.1.1.2.1.3.1.8-.4 1.4-1.2 2.2-1.5.4-.2 1.4.4 1.2 1.2-.1.4-.3.4-.5.7-.5.5-1.2 1-1.7 1.6-.4.4-.9.7-1.2 1.2-.1.2-.3.4-.3.4-1.1-.2-2.3-.2-3.2-.4v-1.3s.9-.1 1.1-.6c0 0 0-.2-.1-.3-.2-.1-.4-.2-.5-.3.9.1 1.5.3 2.3.7.1-.1 0-.3 0-.4-.1-.1-.2-.2-.5-.3-.5-.1-2-.3-2-.3s.7 0 1.2-.1c.3 0 .5-.1.6-.2.1-.1-.1-.3-.2-.6l-.4-.4c-.1-.2-.3-.5-.6-.7-.2-.2-.7-.4-.7-.4s-.1-.7.1-1c.1-.2.4-.3.5-.3.6.4 1.2.8 2.1.9z"/><path fill="#107ABF" d="M239.2 13.3c-.2.1-.5.1-.5.3 0 9.5-.3-.3-.6-.4-.2-.1-.3 0-.4-.2.5 0 1.3 0 1.7.4-.1-.2-.2-.2-.2-.1zM190.1 28c.1-.1.2-.1.4 0l4.4 6.7c-1.4.6-3 1-4.6 1-1.6 0-3.2-.3-4.6-1l4.4-6.7c.1-.1.3-.1.4 0h-.4z"/><path fill="#FFF" d="M239.2 36.6c-.2.2-.6.7-.7 1.4-.1.7.1.8.3 1.2.1.3.5.3.6 0 .1-.2 0-.4 0-.9.1-.4.3-.6.3-.6v-1.6c0 .1-.2.2-.5.5z"/><path fill="#333" d="M24.4 14.5l.3 10.6h-1.1c-.3-2.6-.7-5.2-2.5-7.2-1.7-1.9-3.8-2-6.3-2H8.9v14.4h2.7c3.2-.1 4.8-1 4.9-5.7v-1.4h1.2v16.1h-1.2v-1.9c-.1-4.2-.8-5.7-5-5.8H8.8v15.5h7.3c1.9-.1 3.9-.2 5.8-2.3 2.5-2.7 2.8-5.9 3-8.1h1.3l-.3 11.6H0v-1.2h4V15.7H0v-1.2h24.4zm25.5 10.7v1.2H47l-2.3 3.2-3.8 5.7 4.7 8.5 1.9 3.5h2.9v1.1H38.5v-1.1h4L41 44.5l-3-5.7-3.8 5.7-1.7 2.8h4v1.1h-8.6v-1.1h2.9l2.3-3.3 4.3-6.5-4.2-7.6-2.1-3.5h-3.2v-1.2h12.3v1.2h-4l1.5 2.9 2.5 4.8 3.3-4.8 1.8-2.9h-3.2v-1.2h7.8z"/><path fill="#333" d="M68.5 41c-.6 1.6-1.1 3.4-2.5 5-2 2.2-4.5 2.9-6.7 2.9-6 0-10-5.1-10-11.9 0-6.8 3.9-12.2 10.3-12.2 5.2 0 8.3 3.6 8.3 6.7 0 1.7-1.1 2.4-2.3 2.4-2 0-2-1.8-2.1-2.7 0-.8 0-1.6-.2-2.3-.5-2-2.1-2.8-3.7-2.8-5.2 0-5.5 7.2-5.5 10.7 0 4.8 1.1 10.6 6.2 10.6 1.2 0 2-.3 2.5-.5 3.1-1.3 4.1-4.4 4.7-6.3l1 .4zm6.4-7c.2-2.9.6-8 4.7-8 1.3 0 2.9.5 3.8 2.7.7 1.6.7 3.5.7 5.3h-9.2zm13.2 7.3c-.5 1.3-1.4 4-4 5.4-.8.4-1.8.7-2.9.7-1.3 0-4.2-.4-5.5-4.1-.9-2.5-.9-5.4-.9-8.1h14.5c-.1-2.2-.3-5.1-2.7-7.8-1.5-1.7-3.8-2.9-6.6-2.9-2.7 0-5.1 1.2-6.7 2.9-1.4 1.4-2.5 3.7-3 5.9-.2 1-.3 2.1-.3 3.4 0 2.8.4 6.4 2.9 9.2 2.5 2.7 5.2 3 7.1 3 6.1 0 8-3.8 9.2-7.2l-1.1-.4zm6-26.8c1.7 0 2.3 0 3.9-.2v33h3.4v1.2H89.8v-1.2h3.8V15.7h-3.8v-1.2h4.3zm11.8 0c1.7 0 2.3 0 3.9-.2v33h3.4v1.2h-11.6v-1.2h3.8V15.7h-3.8v-1.2h4.3zm24.9 10.7c2 0 2.5 0 4.1-.2v22.2h3.6v1.2h-3.7c-1.9 0-2.6.1-4.2.2l-.2-4.3c-.8 1.3-2.7 4.6-7.4 4.6-2.1 0-3.9-.7-4.9-1.9-1.4-1.5-1.4-3.9-1.4-5v-5.8l-.1-9.8h-3.3v-1.2h3.4c2 0 2.7 0 4.3-.2v13.1c0 4.6.1 6.9 1.3 8.2.5.5 1.3 1 2.4 1 1.2 0 2.6-.6 3.7-1.8 2-2.2 2.1-4.9 2.1-7.1v-12h-3.9v-1.2h4.2zm10.8 14.5c.1 2.1.3 4.4 2 6.2 1.3 1.4 2.7 1.6 4 1.6 3.1 0 4.9-1.7 4.9-4.1 0-2.7-2.2-3.7-5.1-4.8-2.6-1-6.4-2.4-6.4-7.2 0-4.2 2.8-6.9 7-6.9 2.3 0 4.3.8 6.1 1.4l.1 6.2h-1.3c-.3-1.9-1-6.2-5.1-6.2-2.4 0-3.8 1.6-3.8 3.4 0 .9.3 1.6.8 2.2.6.7 1 .8 4.3 2.2 3.4 1.4 6.7 2.9 6.7 7.7 0 4.4-3.2 7.5-8.2 7.5-2.7 0-5-.8-7.2-1.5v-7.6h1.2v-.1z"/></g></svg>